<?xml version="1.0" encoding="UTF-8"?>
<svg version="1.1" xmlns="http://www.w3.org/2000/svg" width="1194" height="781">
<path d="M0 0 C3.50913566 2.22740237 6.44318545 4.59939388 7.4140625 8.78515625 C8.01075244 15.22719768 6.03252113 19.37677035 2.9375 24.8125 C-13.66416732 54.05268567 -14.47251189 87.02210203 -5.6796875 118.9296875 C4.31594331 153.16201727 22.72132518 185.20783725 44.58398438 213.18701172 C45.97821462 214.9721072 47.35743045 216.76795817 48.734375 218.56640625 C61.66926593 235.36214491 75.95721986 251.07463965 91 266 C92.33377559 267.33289093 93.66721166 268.66612189 95 270 C98.19176092 266.83760418 101.3776081 263.66931241 104.5625 260.5 C105.45775391 259.613125 106.35300781 258.72625 107.27539062 257.8125 C112.40063846 252.70602596 117.31206088 247.50901579 122 242 C122.94910252 240.91672447 123.89956665 239.83463998 124.8515625 238.75390625 C145.30665006 215.30165613 163.57343798 189.59591971 178 162 C178.41636719 161.20674316 178.83273437 160.41348633 179.26171875 159.59619141 C197.3885637 124.59046506 208.22178813 84.52708113 196.31835938 45.78125 C194.01005679 38.76095783 191.16254569 32.18690587 187.625 25.6875 C184.73133634 20.0981602 183.77949098 15.22666466 185 9 C187.02020738 5.46463709 189.08438925 3.23062052 193 2 C198.02682714 1.54301571 201.01133151 1.85105119 205 5 C208.74083705 9.14837539 211.47923732 13.24699993 213.9375 18.25 C214.27740967 18.93964844 214.61731934 19.62929687 214.9675293 20.33984375 C221.16775198 33.30778193 224.89326244 46.81882626 227 61 C227.13148438 61.85335937 227.26296875 62.70671875 227.3984375 63.5859375 C234.17761128 117.26966502 207.7033394 171.23007209 178 214 C177.56445801 214.62986816 177.12891602 215.25973633 176.68017578 215.90869141 C170.45683078 224.87404077 163.82884912 233.48957242 157 242 C156.2265625 242.969375 155.453125 243.93875 154.65625 244.9375 C150.13941336 250.53583274 145.43570697 255.91555626 140.5546875 261.19921875 C139.22306422 262.65911766 137.89494909 264.12310769 136.61230469 265.6262207 C131.14461348 272.02980009 125.25207629 278.00384688 119.32080078 283.97436523 C118.10244982 285.20431487 116.88859967 286.43873855 115.67919922 287.67749023 C113.91049004 289.48894839 112.12882185 291.28671209 110.34375 293.08203125 C109.81124634 293.632043 109.27874268 294.18205475 108.73010254 294.74873352 C104.11764378 299.33511366 99.84738199 301.81328643 93.1875 302.25 C83.50682529 300.47911684 73.88684461 287.04156444 67.09448242 280.22485352 C65.3082533 278.4332405 63.51670653 276.64706945 61.72460938 274.86132812 C55.93713499 269.07751556 50.26753957 263.26861871 45 257 C44.12341624 255.98999889 43.24586289 254.98083821 42.3671875 253.97265625 C5.03268064 210.37671955 -29.13446181 157.89036108 -37 100 C-37.13019531 99.0821875 -37.26039063 98.164375 -37.39453125 97.21875 C-40.97846774 66.25353871 -35.42298342 30.31685425 -16 5 C-11.03636107 -0.19612788 -7.10210365 -1.68524493 0 0 Z " fill="#0D406D" transform="translate(508,116)"/>
<path d="M0 0 C3.09570321 1.34937435 5.81553246 1.30106525 9.18457031 1.38671875 C9.84479187 1.4060849 10.50501343 1.42545105 11.1852417 1.44540405 C13.28384684 1.50494974 15.3825076 1.55148347 17.48144531 1.59765625 C18.90855191 1.63585919 20.33563603 1.67491227 21.76269531 1.71484375 C25.25207222 1.81062955 28.74161817 1.89475267 32.23144531 1.97265625 C32.30174243 17.1506574 32.35453441 32.32865101 32.38688183 47.50677872 C32.40230516 54.55535599 32.42330711 61.6038317 32.45776367 68.65234375 C32.49102898 75.4604564 32.50832233 82.26846369 32.51607704 89.07665253 C32.52160018 91.66804408 32.53238534 94.25943018 32.54863548 96.85077667 C32.57056011 100.49341574 32.57340591 104.13562539 32.57202148 107.77832031 C32.58280731 108.83856415 32.59359314 109.89880798 32.60470581 110.99118042 C32.53608378 127.78673542 26.29148251 141.52469281 15.23144531 153.97265625 C14.67714844 154.60945312 14.12285156 155.24625 13.55175781 155.90234375 C4.385006 165.77085646 -9.70324762 173.25617409 -23.25708008 174.13378906 C-45.80354815 174.49665914 -61.4128391 171.34681376 -78.76855469 155.97265625 C-74.44513295 150.85771577 -69.98055553 145.91423126 -65.39355469 141.03515625 C-64.75289062 140.35130859 -64.11222656 139.66746094 -63.45214844 138.96289062 C-61.89226442 137.29823828 -60.33105296 135.63485435 -58.76855469 133.97265625 C-58.06730469 134.44316406 -57.36605469 134.91367187 -56.64355469 135.3984375 C-46.03776444 142.35848735 -38.71849308 145.27056674 -25.76855469 143.97265625 C-16.26916641 141.66305223 -8.56536377 136.00478806 -3.01855469 128.03125 C1.05729523 121.31883466 1.81776247 114.73277584 2.23144531 106.97265625 C1.6371875 107.23820313 1.04292969 107.50375 0.43066406 107.77734375 C-14.73709875 114.24074501 -30.34764416 114.80435693 -45.83105469 108.84765625 C-61.76010988 101.7149331 -72.17601617 89.84222959 -78.76855469 73.97265625 C-83.83487589 57.77760238 -82.65216257 41.09794975 -74.76855469 25.97265625 C-66.34104201 12.12075345 -54.77276307 2.64714705 -39.18261719 -2.125 C-27.47692771 -4.90284022 -10.93665503 -6.35304312 0 0 Z M-45.26855469 35.28515625 C-46.61326685 37.06261697 -46.61326685 37.06261697 -47.76855469 38.97265625 C-48.17847656 39.62878906 -48.58839844 40.28492188 -49.01074219 40.9609375 C-52.73330246 47.98245636 -53.08860898 55.87209145 -51.10839844 63.5234375 C-47.74276803 71.95936827 -41.90948498 77.83985041 -33.97949219 82.0625 C-26.72904739 85.04722374 -19.16756339 84.71461571 -11.93261719 81.9921875 C-3.71537184 78.12088599 0.15417371 71.31639938 3.23144531 62.97265625 C5.16873283 54.49417443 4.42166314 46.44302277 0.10644531 38.84765625 C-4.19133105 32.50875305 -9.31218865 27.96474406 -16.76855469 25.97265625 C-27.62250682 24.50666791 -37.63279788 27.09441962 -45.26855469 35.28515625 Z " fill="#0D406D" transform="translate(1120.7685546875,503.02734375)"/>
<path d="M0 0 C1.0828125 1.0209375 1.0828125 1.0209375 2.1875 2.0625 C2.61417969 1.62679687 3.04085937 1.19109375 3.48046875 0.7421875 C14.0068073 -9.28496387 27.49453698 -13.56012596 41.84765625 -13.24609375 C57.18696862 -11.82877717 69.09460836 -6.15016989 79.82421875 5.05859375 C82.57333902 8.5529301 84.6754264 12.1085036 86.6875 16.0625 C87.01387451 16.70243896 87.34024902 17.34237793 87.67651367 18.00170898 C92.37096261 27.90915791 92.46849611 38.03176826 92.3828125 48.8203125 C92.37907356 50.21849361 92.37623076 51.61667737 92.37423706 53.01486206 C92.36666983 56.66116817 92.34708246 60.30731014 92.3248291 63.95355225 C92.30422009 67.68776185 92.29509315 71.42199926 92.28515625 75.15625 C92.2648948 82.4584774 92.22573164 89.76025646 92.1875 97.0625 C82.2875 97.0625 72.3875 97.0625 62.1875 97.0625 C62.17332031 92.70289063 62.15914062 88.34328125 62.14453125 83.8515625 C62.11924476 80.35125918 62.08901075 76.85107545 62.05545807 73.35084534 C62.02151138 69.66919859 61.99605941 65.98796356 61.99194336 62.30615234 C61.98763016 58.75255032 61.95892232 55.1998701 61.91406822 51.64655685 C61.89496766 49.64724284 61.90042111 47.64774211 61.90644836 45.64834595 C61.7824743 37.81894373 60.8797872 31.5164321 56.1875 25.0625 C49.88384539 19.18352101 44.83539627 17.69200656 36.265625 17.78515625 C30.21916683 18.32995134 26.60602693 20.64397307 22.375 24.875 C16.83542537 32.9469516 16.72009373 39.69919763 16.67578125 49.30859375 C16.65891463 50.68866046 16.64076174 52.068712 16.62138367 53.44874573 C16.57409208 57.06044775 16.54414875 60.67208823 16.51794434 64.28399658 C16.48803282 67.97786528 16.44169797 71.67152651 16.39648438 75.36523438 C16.30915082 82.59767154 16.2490294 89.8296133 16.1875 97.0625 C6.2875 97.0625 -3.6125 97.0625 -13.8125 97.0625 C-13.83828125 92.69128906 -13.8640625 88.32007813 -13.890625 83.81640625 C-13.92234494 80.31058369 -13.95799758 76.8048497 -13.99629211 73.29909515 C-14.0355227 69.60961613 -14.06797301 65.9203743 -14.08349609 62.23071289 C-14.09874368 58.6707234 -14.13332954 55.11137991 -14.18080902 51.55167961 C-14.2026637 49.54623652 -14.20496675 47.54061073 -14.20684814 45.53504944 C-14.34111348 37.08768195 -15.22321165 30.25115129 -20.84765625 23.6875 C-21.51667969 23.15125 -22.18570313 22.615 -22.875 22.0625 C-23.54660156 21.505625 -24.21820312 20.94875 -24.91015625 20.375 C-29.88432212 16.94313197 -36.03385212 17.54851607 -41.8125 18.0625 C-47.99696831 19.76502362 -52.3462175 23.75268509 -55.8125 29.0625 C-57.66760404 32.9606186 -58.07962887 36.11205137 -58.13134766 40.41333008 C-58.15121735 41.6742598 -58.17108704 42.93518951 -58.19155884 44.23432922 C-58.20343337 45.60022812 -58.21509633 46.96612887 -58.2265625 48.33203125 C-58.24528451 49.73737207 -58.26485869 51.14270178 -58.2852478 52.54801941 C-58.33646617 56.23535594 -58.37614666 59.92272887 -58.41339111 63.61022949 C-58.45349559 67.37761326 -58.50445303 71.14484931 -58.5546875 74.91210938 C-58.65234623 82.29551619 -58.73194292 89.67880747 -58.8125 97.0625 C-68.7125 97.0625 -78.6125 97.0625 -88.8125 97.0625 C-88.8125 62.7425 -88.8125 28.4225 -88.8125 -6.9375 C-79.2425 -7.2675 -69.6725 -7.5975 -59.8125 -7.9375 C-56.1825 -9.2575 -52.5525 -10.5775 -48.8125 -11.9375 C-31.47795477 -15.7195826 -13.6751616 -11.26756273 0 0 Z " fill="#0D406D" transform="translate(619.8125,511.9375)"/>
<path d="M0 0 C12.03221152 10.80998214 19.14470008 25.04215043 20.33056641 41.16577148 C20.76039745 56.58362405 16.93871544 70.79321557 6.67041016 82.51342773 C5.16799747 84.07305149 3.64872754 85.61673397 2.10791016 87.13842773 C1.56650391 87.70174805 1.02509766 88.26506836 0.46728516 88.84545898 C-10.20735731 99.0618466 -25.93605477 103.51500573 -40.41162109 103.29077148 C-49.51017958 102.73196238 -56.26431042 100.5895395 -64.89208984 97.13842773 C-64.89208984 119.24842773 -64.89208984 141.35842773 -64.89208984 164.13842773 C-74.46208984 164.13842773 -84.03208984 164.13842773 -93.89208984 164.13842773 C-93.89208984 107.37842773 -93.89208984 50.61842773 -93.89208984 -7.86157227 C-79.04208984 -8.35657227 -79.04208984 -8.35657227 -63.89208984 -8.86157227 C-59.93208984 -10.18157227 -55.97208984 -11.50157227 -51.89208984 -12.86157227 C-33.69319714 -16.76133499 -14.19623757 -12.0073424 0 0 Z M-58.28662109 24.06811523 C-63.96837832 31.39495546 -66.29739828 38.86546202 -65.89208984 48.13842773 C-64.68823552 55.9692135 -61.12948623 63.77579689 -54.82958984 68.77514648 C-46.9387641 73.83745932 -38.72530144 74.25862636 -29.50927734 72.74780273 C-21.94744091 70.35985439 -15.75496807 64.24423164 -11.82958984 57.51342773 C-8.73982422 50.55072672 -8.65878106 42.80984313 -10.59130859 35.48999023 C-14.22769561 26.49875482 -20.19443757 21.14763126 -28.89208984 17.13842773 C-39.54496885 13.58746806 -50.75440483 15.82921507 -58.28662109 24.06811523 Z " fill="#0D406D" transform="translate(146.89208984375,512.861572265625)"/>
<path d="M0 0 C9.57 0 19.14 0 29 0 C29 19.8 29 39.6 29 60 C31.64 59.01 34.28 58.02 37 57 C52.02438715 52.69085829 67.25149388 54.82607673 81 62 C95.14385683 71.42251232 103.03426928 83.59155097 106.40884399 100.19512939 C107.36959492 106.37883205 107.3695911 112.46568015 107.29296875 118.7109375 C107.28735243 120.05855835 107.28309201 121.40618545 107.28010559 122.7538147 C107.26881647 126.24891996 107.23949354 129.74363296 107.20599365 133.23858643 C107.17494242 136.82566939 107.1613604 140.41281951 107.14648438 144 C107.11620607 151.00034297 107.05744994 157.9996181 107 165 C97.1 165 87.2 165 77 165 C76.96261719 160.689375 76.92523438 156.37875 76.88671875 151.9375 C76.8485674 148.48350569 76.80749497 145.02957337 76.7644577 141.57563782 C76.71993984 137.93895603 76.68047599 134.30238565 76.65356445 130.66552734 C76.62740597 127.15749649 76.58691734 123.64988802 76.53681374 120.14212036 C76.51220113 118.16377354 76.50213277 116.18526287 76.49235535 114.20678711 C76.35940061 106.00776481 76.03812985 98.26525265 69.8125 92.1875 C63.90635795 86.78689412 57.73724739 85.32959175 49.8125 85.59375 C44.15025762 86.41162945 39.25701396 88.56284877 35.3359375 92.796875 C29.51428221 101.30806694 29.68155458 111.41152466 29.5859375 121.34765625 C29.56657135 122.60009628 29.5472052 123.85253632 29.5272522 125.14292908 C29.47788463 128.44225072 29.43649812 131.74154074 29.39910889 135.04101562 C29.35880977 138.42001963 29.30793845 141.79886422 29.2578125 145.17773438 C29.16055608 151.7850927 29.08071078 158.39233627 29 165 C19.43 165 9.86 165 0 165 C0 110.55 0 56.1 0 0 Z " fill="#0D406D" transform="translate(186,444)"/>
<path d="M0 0 C10.23 0.33 20.46 0.66 31 1 C31 35.32 31 69.64 31 105 C16.645 105.495 16.645 105.495 2 106 C-1.3 107.32 -4.6 108.64 -8 110 C-24.54442314 114.17053235 -40.51261744 111.88406987 -55.4375 103.65625 C-69.08497385 95.12657885 -78.00987744 82.50999252 -82 67 C-85.15500489 51.14027745 -82.84373701 34.52543271 -74.10546875 20.8125 C-63.86204057 7.12925643 -51.18042686 -1.1242705 -34.5625 -4.75 C-22.71971097 -5.58107291 -10.83429546 -5.41714773 0 0 Z M-44.9453125 32.859375 C-52.14871585 40.63543384 -53.66258669 46.71798367 -53.40234375 57.2734375 C-52.44098029 66.17771651 -48.07525374 71.83213895 -41.23828125 77.37109375 C-33.97540568 82.65664194 -26.7513731 83.00377665 -18 82 C-10.08151888 79.77896261 -5.12169825 74.9839887 -1 68 C3.10154509 59.76761307 3.22356576 50.99493769 0.4375 42.3125 C-2.64736563 34.73563705 -7.37407366 28.96513134 -14.97265625 25.68359375 C-25.95769745 21.97958178 -36.69123097 24.96993161 -44.9453125 32.859375 Z " fill="#0D406D" transform="translate(392,504)"/>
<path d="M0 0 C14.85 0.495 14.85 0.495 30 1 C30 35.32 30 69.64 30 105 C20.76 105.33 11.52 105.66 2 106 C-3.73068971 107.71525931 -3.73068971 107.71525931 -9.3046875 109.85546875 C-13.19461024 111.50727652 -16.8136699 111.88039057 -21 112 C-21.66644531 112.05027344 -22.33289063 112.10054687 -23.01953125 112.15234375 C-38.57923904 112.87403706 -52.93466741 107.11495176 -64.68359375 97.1953125 C-71.43066172 90.80095803 -76.48514464 83.60074456 -80 75 C-80.3196875 74.22914063 -80.639375 73.45828125 -80.96875 72.6640625 C-85.09463897 60.55381432 -84.90339115 43.82349962 -80 32 C-79.6596875 31.16726563 -79.319375 30.33453125 -78.96875 29.4765625 C-72.81326133 15.9594421 -61.73740606 4.6740354 -47.9453125 -1.00390625 C-31.62982585 -6.52174325 -16.0522482 -6.42089928 0 0 Z M-45 32 C-50.78963409 38.00453318 -53.97622751 45.0274559 -54.4375 53.375 C-54.12377418 61.17722469 -51.14592114 68.80687961 -45.78125 74.5 C-37.32558495 81.62056004 -28.78687476 82.81591489 -18 82 C-10.87841657 80.29726277 -6.13696819 74.76697179 -2 69 C2.55757298 60.62349519 2.63380086 51.97496272 0 43 C-2.71084272 35.47741145 -7.41523956 29.95532388 -14.4375 26.125 C-25.87373391 22.51355771 -35.81251128 24.06215055 -45 32 Z " fill="#0D406D" transform="translate(809,504)"/>
<path d="M0 0 C10.80843022 9.39093117 19.99146651 22.27113402 21.09887695 37.03100586 C21.59116305 57.96395213 18.84213485 72.73599109 4.07421875 88.609375 C-7.11338262 99.3299803 -21.21216762 104.45120604 -36.578125 104.921875 C-54.50078683 104.37289257 -69.39226168 97.28429759 -81.71875 84.421875 C-92.19964126 72.20573684 -95.93666936 57.41820697 -95.45703125 41.62109375 C-93.73511468 23.67410765 -85.63919326 10.08937644 -72.078125 -1.328125 C-50.94995922 -17.2944779 -20.75196994 -15.69565239 0 0 Z M-59.390625 27.859375 C-64.14878645 33.47755777 -65.69375253 39.02033658 -66.453125 46.234375 C-65.35232222 56.32506714 -60.91465898 63.69143468 -53.12890625 70.125 C-45.98227155 75.51560446 -38.82846982 75.55584854 -30.078125 74.671875 C-26.71366093 73.79741077 -24.00468487 72.53316708 -21.078125 70.671875 C-20.45421875 70.28257812 -19.8303125 69.89328125 -19.1875 69.4921875 C-13.46985963 65.2909648 -10.30665464 59.30234128 -8.078125 52.671875 C-6.65830658 43.37260628 -8.30301615 36.18934178 -13.55078125 28.51953125 C-18.53306536 22.1945039 -25.10119091 18.15249662 -33.078125 16.734375 C-43.89982188 16.01438307 -52.0295064 20.27031648 -59.390625 27.859375 Z " fill="#0D406D" transform="translate(1007.078125,511.328125)"/>
<path d="M0 0 C12.64907372 11.35842197 12.64907372 11.35842197 13.79296875 16.39453125 C13.84594459 22.55738787 13.13849925 26.02292122 8.796875 30.50390625 C5.1035963 33.36147955 0.64668955 33.30921506 -3.80859375 32.74609375 C-8.45689139 30.76626327 -11.60712394 28.09187783 -15.30859375 24.68359375 C-42.10575179 0.0350732 -76.93890711 -12.41855766 -113.3046875 -11.5 C-146.57889132 -10.01737642 -177.27488511 2.49769836 -202.06762695 24.63598633 C-211.80614629 33.32946787 -211.80614629 33.32946787 -216.80859375 33.24609375 C-221.05127386 33.00319222 -223.57219197 31.54116802 -226.80859375 28.74609375 C-230.0456102 24.99796945 -231.61611997 21.87707238 -231.30859375 16.8125 C-227.75637294 2.13183744 -205.47219503 -9.61566734 -193.44921875 -16.9609375 C-176.1392556 -27.17012126 -157.48804555 -33.456901 -137.80859375 -37.25390625 C-137.13086914 -37.38522949 -136.45314453 -37.51655273 -135.75488281 -37.65185547 C-88.55786323 -46.26718444 -36.06209046 -31.38650571 0 0 Z " fill="#8E4191" transform="translate(711.80859375,54.25390625)"/>
<path d="M0 0 C3.01494468 1.57301462 4.49392316 2.79171127 5.81640625 5.94921875 C6.9133753 9.90244685 7.19584847 13.0324679 6.125 17 C3.40370008 27.2904785 3.6828032 38.75472518 8.40234375 48.3515625 C14.10009569 57.79673564 21.44192698 63.29132834 32.01171875 66.63671875 C41.81054371 68.4270738 50.71279076 66.68297526 59.25390625 61.6796875 C67.58922124 55.89083496 72.78426684 47.89526287 75 38 C75.65073907 30.56530613 75.26170101 24.06781566 73 17 C72.46534065 13.5687052 72.23844762 10.37443517 73.98046875 7.23046875 C77.59616019 2.65800973 80.16739604 1.2403415 85.8125 0.5 C90.11963006 0.62857105 92.48906607 2.21265972 95.53125 5.171875 C97.97347874 8.21167034 99.04789043 11.25190671 100 15 C100.20367188 15.75152344 100.40734375 16.50304687 100.6171875 17.27734375 C104.6572277 34.35066431 100.99828223 51.2068262 92.20947266 66.11767578 C83.11345064 80.27397972 68.39484845 89.4780349 52.125 93.3125 C35.59943314 96.02290348 18.51294214 92.94850475 4.640625 83.37109375 C-9.70852395 72.60923204 -17.86150586 59.64630598 -21.62109375 42.1015625 C-23.26301697 28.66148993 -23.24118818 14.33732517 -15 3 C-10.21314831 -1.10571865 -6.04900245 -1.47680724 0 0 Z " fill="#0D406D" transform="translate(563,163)"/>
<path d="M0 0 C10.9387501 9.39338651 10.9387501 9.39338651 12.8203125 15.421875 C12.6334732 21.30731309 11.68874442 24.7797567 7.8203125 29.421875 C3.35082265 32.15849061 -1.0927821 32.39116717 -6.1796875 31.421875 C-9.57783073 29.52376104 -12.31429787 27.03896397 -15.1796875 24.421875 C-32.37437243 9.22165264 -54.36262126 1.79775798 -77.25390625 2.171875 C-97.37536846 3.45324175 -115.59585091 10.6514036 -131.1796875 23.421875 C-132.82166273 24.71844257 -134.46743105 26.01022284 -136.1171875 27.296875 C-136.84808594 27.87179688 -137.57898438 28.44671875 -138.33203125 29.0390625 C-142.40224009 32.08526531 -146.24622995 31.88438665 -151.1796875 31.421875 C-155.76294211 29.58857316 -157.98841973 26.80441054 -160.1796875 22.421875 C-160.96919564 17.97192003 -160.69089078 14.53722762 -158.8046875 10.421875 C-143.42874479 -7.15063096 -121.76862719 -18.43196368 -99.1796875 -23.578125 C-98.20773437 -23.80242188 -97.23578125 -24.02671875 -96.234375 -24.2578125 C-62.69625098 -30.65019645 -26.34814414 -21.63014526 0 0 Z " fill="#0D406D" transform="translate(677.1796875,83.578125)"/>
<path d="M0 0 C9.9 0 19.8 0 30 0 C30 54.45 30 108.9 30 165 C20.1 165 10.2 165 0 165 C0 110.55 0 56.1 0 0 Z " fill="#0D406D" transform="translate(864,444)"/>
<path d="M0 0 C0.99 1.485 0.99 1.485 2 3 C-4 10.33333333 -10 17.66666667 -16 25 C-16.9178125 24.67773438 -17.835625 24.35546875 -18.78125 24.0234375 C-22.48642678 22.84533517 -25.130997 22.58546396 -29 23 C-32.99641588 25.11131405 -35.42361747 26.75336086 -37 31 C-37.32806412 34.27520008 -37.32806412 34.27520008 -37.31884766 37.97167969 C-37.32889328 38.6647673 -37.3389389 39.35785492 -37.34928894 40.07194519 C-37.38009764 42.35524695 -37.39714934 44.63843158 -37.4140625 46.921875 C-37.43277604 48.50800584 -37.4523496 50.09412675 -37.4727478 51.68023682 C-37.52405546 55.84928528 -37.56368842 60.01836602 -37.60089111 64.18756104 C-37.64093936 68.44413223 -37.69202795 72.70056933 -37.7421875 76.95703125 C-37.83893069 85.30460263 -37.92231988 93.65222943 -38 102 C-47.9 102 -57.8 102 -68 102 C-68 67.68 -68 33.36 -68 -2 C-60.41 -2.33 -52.82 -2.66 -45 -3 C-42.03 -4.32 -39.06 -5.64 -36 -7 C-23.70275215 -10.13972286 -10.27736463 -7.40873758 0 0 Z " fill="#0D406D" transform="translate(515,507)"/>
<path d="M0 0 C3.21879006 3.10383327 5.5739981 5.7219943 7 10 C7 15.29321149 6.00638873 18.8129774 2.5625 22.875 C-1.10866882 25.9193839 -4.16222418 26.35499997 -8.890625 26.27734375 C-14.03424692 25.60105272 -17.84154849 22.12993881 -21.75 19 C-31.22708407 11.87410091 -41.52373721 10.87669274 -53 12 C-60.23116086 13.51433232 -65.37695066 16.71886591 -71.01171875 21.3828125 C-74.7202694 24.3991975 -77.75032923 25.8661067 -82.5 26.375 C-87.27237811 25.86367377 -90.55896419 24.59010848 -93.8125 21 C-96.19889845 16.9808026 -96.31143719 13.59369852 -96 9 C-93.32777751 0.62703621 -85.63041656 -4.32477646 -78.20800781 -8.26000977 C-71.35057797 -11.72489256 -64.59036783 -14.56762413 -57 -16 C-56.30390625 -16.14050781 -55.6078125 -16.28101562 -54.890625 -16.42578125 C-35.18639744 -19.49993705 -14.78713236 -13.17860842 0 0 Z " fill="#8E4191" transform="translate(648,123)"/>
<path d="M0 0 C25.54066986 0 25.54066986 0 35.7265625 9.6328125 C40.99851825 15.21641095 43.09136476 21.37730289 43.375 29 C43.05761436 37.5429636 40.11050307 44.94041779 34 51 C22.65148386 59.36589331 15.34147026 58 0 58 C0 38.86 0 19.72 0 0 Z M8 8 C8 21.86 8 35.72 8 50 C17.04416138 50 23.54124393 49.45875607 30 43 C33.89414371 37.59146707 35.24170552 32.68368321 35 26 C34.04037221 20.38365211 31.23023854 16.31058558 27.08984375 12.4765625 C21.14318227 8.27499607 15.12350359 8 8 8 Z " fill="#647890" transform="translate(199,680)"/>
<path d="M0 0 C2.64 0 5.28 0 8 0 C8 19.14 8 38.28 8 58 C5.03 58 2.06 58 -1 58 C-2.2065625 58.495 -2.2065625 58.495 -3.4375 59 C-8.19034255 60.85476782 -13.33201236 60.78580941 -18.21484375 59.34765625 C-24.59418214 56.49470837 -28.71660604 52.01318582 -31.4375 45.625 C-32.62091521 37.99854643 -31.47305702 32.28645851 -27 26 C-22.76485317 21.66859983 -18.95691129 19.58379893 -13 19 C-7.98764628 19.08257584 -4.52865942 19.73567029 0 22 C0 14.74 0 7.48 0 0 Z M-21.375 32.3125 C-23.25200635 35.41677974 -23.92589265 37.36874006 -24 41 C-22.43406858 45.12087215 -20.61655085 48.43034545 -17 51 C-12.76327426 52.160529 -9.27254027 52.47028662 -5.125 50.9375 C-1.44162939 47.57913268 -0.17610425 44.40883403 0.4375 39.5 C-0.0956325 35.23494 -1.19831042 33.24406162 -4 30 C-10.7357213 25.95856722 -15.76109774 26.84633201 -21.375 32.3125 Z " fill="#647890" transform="translate(322,680)"/>
<path d="M0 0 C4.1692673 2.94350272 7.06878287 6.06508368 8.75 10.9375 C9.59358884 17.5726507 9.93502862 24.40246215 5.75 29.9375 C0.56926428 35.22057124 -3.74517361 37.98796252 -11.25 38.1875 C-15.41402395 38.21352515 -17.10129333 37.59698267 -21.25 35.9375 C-21.58 43.5275 -21.91 51.1175 -22.25 58.9375 C-24.89 58.9375 -27.53 58.9375 -30.25 58.9375 C-30.25 39.4675 -30.25 19.9975 -30.25 -0.0625 C-26.95 -0.3925 -23.65 -0.7225 -20.25 -1.0625 C-19.074375 -1.43375 -17.89875 -1.805 -16.6875 -2.1875 C-10.6446857 -3.72567091 -5.46184759 -3.04464574 0 0 Z M-19.5 8.875 C-22.36580312 12.25255368 -22.59122932 15.52142544 -22.53515625 19.87109375 C-22.06323556 23.29090256 -20.45577598 25.3640947 -18.25 27.9375 C-14.53906228 30.24325 -11.75126529 30.26981005 -7.51171875 29.66015625 C-4.12599545 28.5783621 -2.37126568 26.86765052 -0.2890625 24.03515625 C1.56858824 20.28493652 1.71329978 16.98188841 0.75 12.9375 C-1.62796154 8.85037861 -3.77374412 6.78546342 -8.25 5.4375 C-13.10385417 4.54336897 -15.77836699 5.67026046 -19.5 8.875 Z " fill="#647890" transform="translate(848.25,702.0625)"/>
<path d="M0 0 C5.39380018 3.25045101 8.95791948 6.68214795 10.56640625 12.87109375 C11.55049566 19.96689634 10.88442442 26.02516146 6.56640625 31.87109375 C2.80676273 35.90884789 -1.22542332 38.62145135 -6.79296875 39.0546875 C-11.85529236 39.18199445 -14.55302604 38.82332083 -19.43359375 36.87109375 C-19.76359375 44.46109375 -20.09359375 52.05109375 -20.43359375 59.87109375 C-23.07359375 59.87109375 -25.71359375 59.87109375 -28.43359375 59.87109375 C-28.43359375 40.40109375 -28.43359375 20.93109375 -28.43359375 0.87109375 C-25.13359375 0.54109375 -21.83359375 0.21109375 -18.43359375 -0.12890625 C-17.25796875 -0.50015625 -16.08234375 -0.87140625 -14.87109375 -1.25390625 C-9.47167153 -2.62830463 -5.08603181 -2.35933097 0 0 Z M-17.43359375 8.87109375 C-20.72403599 12.47996589 -20.89812522 16.02770483 -20.71875 20.72265625 C-20.15630865 24.96022806 -18.41156224 27.10457791 -15.12109375 29.68359375 C-11.85774061 31.12554049 -9.97107971 31.37644889 -6.43359375 30.87109375 C-2.11712824 28.58590613 0.66406875 26.41556666 2.56640625 21.87109375 C3.09923863 17.68455363 2.83824774 15.43652404 1.00390625 11.62109375 C-2.02428807 8.20466939 -4.13921209 7.3025543 -8.43359375 5.87109375 C-11.87347783 5.87109375 -14.40914201 7.3323376 -17.43359375 8.87109375 Z " fill="#647890" transform="translate(565.43359375,701.12890625)"/>
<path d="M0 0 C2.64 0 5.28 0 8 0 C8 19.14 8 38.28 8 58 C5.03 58 2.06 58 -1 58 C-2.2065625 58.495 -2.2065625 58.495 -3.4375 59 C-8.19034255 60.85476782 -13.33201236 60.78580941 -18.21484375 59.34765625 C-23.3100862 57.06897776 -26.90223786 53.61984596 -30 49 C-31.86976392 43.39070825 -32.05472398 36.44744068 -30.31640625 30.765625 C-27.8237996 26.09069469 -24.04961472 22.29592507 -19.15234375 20.21484375 C-12.41251499 18.1915552 -6.2394095 18.88029525 0 22 C0 14.74 0 7.48 0 0 Z M-21.4375 32.125 C-23.64632331 36.1892349 -23.99475639 39.48118415 -23 44 C-21.12132009 47.81407469 -18.85026484 50.33047458 -14.80859375 51.79296875 C-10.6042159 52.51148341 -8.44895426 52.22039573 -4.5625 50.3125 C-0.67443309 46.80375669 -0.10546859 45.32890428 0.3125 40.0625 C0.20729682 36.28921265 -0.59874383 34.00157021 -3 31 C-9.198762 25.2144888 -15.29899809 26.77348551 -21.4375 32.125 Z " fill="#647890" transform="translate(460,680)"/>
<path d="M0 0 C3.78632323 3.59913421 6.72115387 6.88443074 7.203125 12.26953125 C7.30179435 17.62234344 7.18418241 21.48051528 4 26 C-0.34737181 30.36792676 -3.84426153 33.09918756 -10.1875 33.3125 C-15.96955158 33.2184829 -20.37848448 31.5109305 -24.57421875 27.4921875 C-28.16730787 23.06517225 -29.17039708 18.64315046 -29 13 C-28.04762307 7.38097609 -26.12123844 3.94205416 -22 0 C-14.63106499 -4.11793427 -7.40477125 -4.17359834 0 0 Z " fill="#0D406D" transform="translate(614,181)"/>
<path d="M0 0 C2.64 0 5.28 0 8 0 C8 11.88 8 23.76 8 36 C4.7 36 1.4 36 -2 36 C-3.672233 36.65257873 -5.33927151 37.31867549 -7 38 C-13.00133673 38.69729817 -17.64888945 37.98427319 -23 35 C-28.74708712 30.03660658 -31.67260473 25.25613847 -32.25 17.75 C-31.80861313 11.12919701 -30.19113972 6.74485136 -25.3125 2.125 C-17.74423798 -3.88832818 -8.76971057 -4.38485529 0 0 Z M-19 8 C-21.86715282 10.71625004 -22.87696863 12.58476914 -24 16.375 C-24 20.93736447 -22.94334145 23.54979914 -20 27 C-16.63805899 29.44504801 -14.02723342 30.25504865 -9.9375 30.0625 C-6.54585276 29.45824101 -5.81366963 28.83349201 -3.0625 26.375 C-0.75713223 22.60258002 0 20.41276928 0 16 C-1.43283317 11.47526368 -2.71257986 8.26981066 -7 6 C-11.71480293 4.21602051 -14.69667849 5.65273372 -19 8 Z " fill="#647890" transform="translate(999,702)"/>
<path d="M0 0 C3.56903155 3.40545094 4.91685983 5.73746209 6.8125 10.4765625 C6.8125 14.1065625 6.8125 17.7365625 6.8125 21.4765625 C-2.7575 21.8065625 -12.3275 22.1365625 -22.1875 22.4765625 C-18.08549871 27.23036449 -18.08549871 27.23036449 -13.1875 28.3515625 C-12.49914062 28.403125 -11.81078125 28.4546875 -11.1015625 28.5078125 C-9.04820674 28.54312016 -9.04820674 28.54312016 -6.5625 27.8515625 C-3.10816179 27.30614068 -1.1305825 28.76546803 1.8125 30.4765625 C0.79735266 33.7475928 -0.22001736 34.49514385 -3.25 36.2265625 C-9.04893836 38.40417213 -14.689298 38.43139621 -20.375 35.9140625 C-25.59970701 32.96278089 -29.07656436 28.90042208 -31.5625 23.4765625 C-32.91642094 16.97774196 -32.56388801 11.23561897 -29.1875 5.4765625 C-25.43344152 1.07525255 -21.19422938 -2.42433871 -15.390625 -3.4296875 C-9.88891412 -3.66380286 -4.60891739 -3.20978175 0 0 Z M-21.625 9.5390625 C-23.39675082 11.32119377 -23.39675082 11.32119377 -23.1875 13.4765625 C-16.2575 13.4765625 -9.3275 13.4765625 -2.1875 13.4765625 C-3.24693819 9.23880974 -3.88606869 8.13604883 -7.1875 5.4765625 C-12.69472081 3.24390541 -17.34290779 5.91575371 -21.625 9.5390625 Z " fill="#647890" transform="translate(505.1875,702.5234375)"/>
<path d="M0 0 C3.05592508 1.47627984 3.05592508 1.47627984 10.234375 0.953125 C10.234375 12.833125 10.234375 24.713125 10.234375 36.953125 C7.264375 36.953125 4.294375 36.953125 1.234375 36.953125 C0.0278125 37.448125 0.0278125 37.448125 -1.203125 37.953125 C-5.95596755 39.80789282 -11.09763736 39.73893441 -15.98046875 38.30078125 C-21.0757112 36.02210276 -24.66786286 32.57297096 -27.765625 27.953125 C-29.68124399 22.20626802 -29.98209449 15.1734882 -27.82421875 9.4609375 C-24.58606348 4.08093032 -21.00902054 0.73831344 -15.015625 -1.359375 C-10.17041957 -2.39632237 -4.37467106 -2.59383152 0 0 Z M-19.203125 11.078125 C-21.41194831 15.1423599 -21.76038139 18.43430915 -20.765625 22.953125 C-18.88300222 26.77520446 -16.62473869 29.32037402 -12.5390625 30.7109375 C-8.87882189 31.28629305 -6.3826527 31.18115698 -2.890625 29.890625 C0.79274561 26.53225768 2.05827075 23.36195903 2.671875 18.453125 C2.1387425 14.188065 1.03606458 12.19718662 -1.765625 8.953125 C-8.56290407 4.87475756 -13.32076502 5.94991374 -19.203125 11.078125 Z " fill="#647890" transform="translate(274.765625,701.046875)"/>
<path d="M0 0 C3.3 0.33 6.6 0.66 10 1 C10 12.88 10 24.76 10 37 C7.03 37 4.06 37 1 37 C-0.2375 37.495 -0.2375 37.495 -1.5 38 C-6.63570356 40.05428143 -11.59435342 39.46854886 -16.75 37.75 C-21.92841261 34.96162398 -25.34267551 32.31464898 -28 27 C-29.71052319 21.21053688 -29.94161987 15.3879122 -27.4375 9.8125 C-24.37016793 4.40146701 -20.31573377 0.98633105 -14.625 -1.4375 C-9.73265574 -2.19665687 -4.51900737 -2.25950369 0 0 Z M-18.375 10.6875 C-20.66663261 13.94866949 -21.18081035 17.09751 -21 21 C-19.73906578 24.85697525 -18.34418409 26.68040049 -15.375 29.4375 C-10.90792285 31.50559127 -7.65659509 31.58358473 -3 30 C0.43365902 27.26708772 1.69641735 25.84507515 2.40234375 21.5546875 C2.54525154 17.72475861 2.24426101 14.67530984 0.9375 11.0625 C-1.76278851 8.18799933 -4.28597808 7.30678549 -8 6 C-11.53598351 6 -15.57452195 8.69768665 -18.375 10.6875 Z " fill="#647890" transform="translate(780,701)"/>
<path d="M0 0 C3.3 0.33 6.6 0.66 10 1 C10 12.88 10 24.76 10 37 C7.03 37 4.06 37 1 37 C-0.2065625 37.495 -0.2065625 37.495 -1.4375 38 C-6.87440983 40.12172091 -12.91180623 39.81560805 -18.25 37.5 C-23.03440226 34.78269243 -26.93850395 30.28804875 -28.640625 25.015625 C-29.75449626 18.76826009 -29.49613483 13.44410581 -26.328125 7.85546875 C-23.16955545 3.44276129 -19.60063378 0.68175143 -14.625 -1.4375 C-9.73265574 -2.19665687 -4.51900737 -2.25950369 0 0 Z M-18.375 10.625 C-20.83449475 14.21964618 -21.31478811 17.68290591 -21 22 C-18.89251335 26.37708765 -16.58692088 29.26716322 -12 31 C-6.9849686 31.3836636 -3.90458716 30.71997753 0.0625 27.5625 C2.96288773 23.40761931 2.72146502 18.84759643 2 14 C0.90344465 10.96834697 0.0935456 9.61000503 -2.72265625 8.0390625 C-9.09186409 5.1879592 -12.78462692 6.80000789 -18.375 10.625 Z " fill="#647890" transform="translate(715,701)"/>
<path d="M0 0 C4.80724394 4.75742794 6.15722401 8.60943476 6.25 15.3125 C6.17679613 21.31521734 5.75374624 25.19185877 1.41796875 29.61328125 C-4.20081018 34.74240625 -8.81330519 36.49402845 -16.4375 36.3125 C-21.96702854 35.63816725 -26.19981629 33.20913585 -29.875 29.0625 C-34.19105331 22.84230552 -34.69966933 17.42305433 -34 10 C-31.71732004 3.51238328 -27.1091104 -0.9454448 -21 -4 C-13.52477205 -6.49174265 -6.1929585 -4.40652816 0 0 Z M-23 7 C-25.51698153 9.9102599 -25.9511702 11.61633731 -26.4375 15.4375 C-25.79818893 20.64331871 -23.68870206 23.50429246 -19.8125 26.9375 C-15.63897139 28.51416636 -12.22573806 28.43823366 -8 27 C-4.51050589 24.59296121 -2.45176645 21.88890753 -1.4609375 17.74609375 C-1.18730687 13.49041732 -1.8257223 11.29953979 -4 7.5625 C-10.46163382 2.04318778 -16.15830369 1.90411585 -23 7 Z " fill="#647890" transform="translate(895,704)"/>
<path d="M0 0 C5.4318093 4.58686119 9.30045942 8.43926461 10.05078125 15.671875 C10.23502121 21.76149047 9.60875479 26.46405544 5.8125 31.375 C0.04598674 36.70061285 -4.71098397 38.76266763 -12.55859375 38.6484375 C-18.60698013 38.01933342 -22.67233968 35.24720734 -26.625 30.75 C-31.3619866 24.83844724 -30.77375669 18.75688 -30.1875 11.375 C-28.59161851 5.99459954 -24.75731495 2.45083699 -20.1875 -0.625 C-13.48144753 -3.47471786 -6.47175774 -3.29932747 0 0 Z M-18.1875 8.375 C-21.45638308 11.22479551 -22.48871023 13.51914695 -22.8125 17.75 C-22.58203862 22.19567444 -21.20870925 24.89559984 -18.09765625 28.05078125 C-14.64868596 30.44178519 -11.30785344 30.88450607 -7.1875 30.375 C-2.77087794 28.24847827 -0.0891274 25.91777658 1.8125 21.375 C2.33612754 17.26078361 2.05561814 14.9246584 0.375 11.125 C-5.1086791 5.24007609 -11.23242199 4.01102948 -18.1875 8.375 Z " fill="#647890" transform="translate(366.1875,701.625)"/>
<path d="M0 0 C4.44964592 3.05802359 6.97962713 6.68888139 8.6875 11.8125 C9.41328494 18.81114046 9.37765707 24.40537125 5.11328125 30.1953125 C1.2521835 34.5747494 -2.70563508 37.40064345 -8.5703125 38.0703125 C-14.68424293 38.35076802 -19.31526207 37.44078411 -24.3125 33.8125 C-28.07505113 30.23185338 -31.00732475 26.29648458 -31.6484375 21.078125 C-31.75354812 12.96358485 -30.77964508 7.47776766 -25.125 1.5 C-16.82621925 -3.47926845 -8.6646156 -4.95808559 0 0 Z M-19.3125 7.8125 C-22.35138015 11.16306017 -23.22725986 13.27548713 -23.9375 17.75 C-23.68957311 21.90877372 -22.08826552 24.49360893 -19.2265625 27.45703125 C-15.81162123 29.87536721 -12.41287266 30.2073507 -8.3125 29.8125 C-4.16999116 28.15549646 -1.6014909 25.62748484 0.6875 21.8125 C1.29419457 17.03478026 1.17555296 14.84717227 -0.875 10.5 C-3.90701443 7.15700973 -6.06233917 6.22922028 -10.3125 4.8125 C-13.66176499 4.8125 -16.47973148 6.14059876 -19.3125 7.8125 Z " fill="#647890" transform="translate(611.3125,702.1875)"/>
<path d="M0 0 C4.60487165 2.47954628 8.87566541 5.64210949 10.59936523 10.79003906 C11.09351246 13.51582865 11.11179222 16.08872552 11.09765625 18.859375 C11.09443359 19.97441406 11.09121094 21.08945312 11.08789062 22.23828125 C11.07532227 23.97658203 11.07532227 23.97658203 11.0625 25.75 C11.05798828 26.92433594 11.05347656 28.09867188 11.04882812 29.30859375 C11.03705094 32.20578072 11.02060326 35.10286454 11 38 C8.36 38 5.72 38 3 38 C2.98541748 37.3294458 2.97083496 36.6588916 2.95581055 35.96801758 C2.881117 32.91561178 2.78452701 29.86427415 2.6875 26.8125 C2.66494141 25.75740234 2.64238281 24.70230469 2.61914062 23.61523438 C2.5659668 22.08286133 2.5659668 22.08286133 2.51171875 20.51953125 C2.48553467 19.58214111 2.45935059 18.64475098 2.43237305 17.67895508 C1.91944289 14.50087345 0.89253808 12.58906405 -1 10 C-3.76214972 8.32926958 -3.76214972 8.32926958 -7 8 C-10.18398132 9.10214738 -12.28927973 9.89712688 -14.14599609 12.77832031 C-15.16152167 15.42019646 -15.31981291 17.59438736 -15.4140625 20.421875 C-15.47207031 21.95908203 -15.47207031 21.95908203 -15.53125 23.52734375 C-15.57765625 25.12255859 -15.57765625 25.12255859 -15.625 26.75 C-15.68300781 28.36841797 -15.68300781 28.36841797 -15.7421875 30.01953125 C-15.83634631 32.67951775 -15.92197387 35.3394994 -16 38 C-18.64 38 -21.28 38 -24 38 C-24 26.12 -24 14.24 -24 2 C-20.7 1.67 -17.4 1.34 -14 1 C-12.96875 0.62875 -11.9375 0.2575 -10.875 -0.125 C-6.9888545 -1.30773994 -3.89722648 -1.07563451 0 0 Z " fill="#647890" transform="translate(931,700)"/>
<path d="M0 0 C4.07086044 3.42322355 6.77654515 7.05192861 7.75 12.3125 C7.83026745 14.19127624 7.85765872 16.0726615 7.84765625 17.953125 C7.84443359 19.02304687 7.84121094 20.09296875 7.83789062 21.1953125 C7.82532227 22.86207031 7.82532227 22.86207031 7.8125 24.5625 C7.80798828 25.68914063 7.80347656 26.81578125 7.79882812 27.9765625 C7.78705397 30.75526217 7.7706084 33.53385409 7.75 36.3125 C5.11 36.3125 2.47 36.3125 -0.25 36.3125 C-0.26981934 35.67223877 -0.28963867 35.03197754 -0.31005859 34.37231445 C-0.40563601 31.4561472 -0.51518214 28.54066428 -0.625 25.625 C-0.6559375 24.61759766 -0.686875 23.61019531 -0.71875 22.57226562 C-0.75742187 21.59580078 -0.79609375 20.61933594 -0.8359375 19.61328125 C-0.88306885 18.27003784 -0.88306885 18.27003784 -0.93115234 16.8996582 C-1.41992298 12.93372982 -2.41342174 10.14907826 -5.25 7.3125 C-8.65957791 6.08126353 -10.0128423 6.21949698 -13.4375 7.5625 C-16.45397879 9.17060882 -16.45397879 9.17060882 -18.25 12.3125 C-18.61749389 14.92539494 -18.61749389 14.92539494 -18.6640625 17.85546875 C-18.72207031 19.46518555 -18.72207031 19.46518555 -18.78125 21.10742188 C-18.82765625 22.78674805 -18.82765625 22.78674805 -18.875 24.5 C-18.93300781 26.19672852 -18.93300781 26.19672852 -18.9921875 27.92773438 C-19.08652533 30.7224925 -19.17211652 33.51724278 -19.25 36.3125 C-21.89 36.3125 -24.53 36.3125 -27.25 36.3125 C-27.25 24.4325 -27.25 12.5525 -27.25 0.3125 C-23.95 -0.0175 -20.65 -0.3475 -17.25 -0.6875 C-16.21875 -1.05875 -15.1875 -1.43 -14.125 -1.8125 C-8.90266119 -3.40190746 -4.78410578 -2.48405493 0 0 Z " fill="#647890" transform="translate(653.25,701.6875)"/>
<path d="M0 0 C3.6928223 2.97031359 4.8376214 4.3504856 6 9 C1.545 9.495 1.545 9.495 -3 10 C-3 9.34 -3 8.68 -3 8 C-4.32 8.33 -5.64 8.66 -7 9 C-7.33 10.32 -7.66 11.64 -8 13 C-6.80375 13.2475 -5.6075 13.495 -4.375 13.75 C0.55827785 15.00081335 4.55940922 16.80779665 7.4375 21.1875 C8.51081784 26.55408919 8.07699373 31.2545274 5.1875 35.9375 C1.68279378 39.24193729 0.01501987 39.91814356 -4.875 40.3125 C-8.87898455 40.19320065 -11.63375767 39.27025645 -15 37 C-17.66700027 33.62179966 -18.36643342 31.27505653 -18 27 C-14.535 26.505 -14.535 26.505 -11 26 C-10.773125 26.639375 -10.54625 27.27875 -10.3125 27.9375 C-9.14661024 30.22094782 -9.14661024 30.22094782 -6.5625 30.9375 C-3.99112374 31.2375991 -3.99112374 31.2375991 -2.125 29.8125 C-0.80187288 28.07265274 -0.80187288 28.07265274 -1.12890625 26.01171875 C-1.83682819 23.79934747 -1.83682819 23.79934747 -4.14453125 22.875 C-5.02496094 22.58625 -5.90539062 22.2975 -6.8125 22 C-14.10985431 19.2647971 -14.10985431 19.2647971 -16 16 C-16.77492823 11.14433272 -16.74652483 7.32715526 -14.3125 3 C-9.60335254 -1.07277618 -6.05117014 -1.62084915 0 0 Z " fill="#647890" transform="translate(398,700)"/>
<path d="M0 0 C2.97 0 5.94 0 9 0 C9 7.26 9 14.52 9 22 C10.98 22 12.96 22 15 22 C15 24.64 15 27.28 15 30 C13.02 30 11.04 30 9 30 C9 39.24 9 48.48 9 58 C6.03 58 3.06 58 0 58 C0 48.76 0 39.52 0 30 C-0.99 30 -1.98 30 -3 30 C-3 27.36 -3 24.72 -3 22 C-2.01 22 -1.02 22 0 22 C0 14.74 0 7.48 0 0 Z " fill="#647990" transform="translate(950,680)"/>
<path d="M0 0 C2.64 0 5.28 0 8 0 C8 7.26 8 14.52 8 22 C10.31 22 12.62 22 15 22 C15 24.64 15 27.28 15 30 C12.69 30 10.38 30 8 30 C8 39.24 8 48.48 8 58 C5.36 58 2.72 58 0 58 C0 48.76 0 39.52 0 30 C-1.32 30 -2.64 30 -4 30 C-4 27.36 -4 24.72 -4 22 C-2.68 22 -1.36 22 0 22 C0 14.74 0 7.48 0 0 Z " fill="#647890" transform="translate(669,680)"/>
</svg>
